<svg id="logo-index" xmlns="http://www.w3.org/2000/svg" width="113" height="42" viewBox="0 0 113 42">
  <path id="Shape" d="M30.2,41.1a9.663,9.663,0,0,1-.806-2.334,14.415,14.415,0,0,1-.447-3.5V25.487a16.74,16.74,0,0,0-.448-3.769,7.758,7.758,0,0,0-1.434-3.141,7.231,7.231,0,0,0-2.688-2.244,8.835,8.835,0,0,0-3.943-.807,8.848,8.848,0,0,0-3.137.538A9.669,9.669,0,0,0,14.607,17.5a14.894,14.894,0,0,0-2.061,2.065A6.471,6.471,0,0,0,11.2,21.987c-.09.359-.179.718-.269,1.166a6.111,6.111,0,0,0-.179,1.257V40.833H7.976V20.282c0-1.077-.09-2.155-.09-3.231C7.8,15.974,7.8,14.9,7.707,13.82H10.4l.269,5.385h.089a7.823,7.823,0,0,1,1.613-2.334A8.279,8.279,0,0,1,14.7,14.9a11.088,11.088,0,0,1,2.957-1.346,14.324,14.324,0,0,1,3.495-.449c.358,0,.9.09,1.613.18A11.571,11.571,0,0,1,25,13.82a12.022,12.022,0,0,1,2.329,1.256,10.263,10.263,0,0,1,2.151,2.244,15.06,15.06,0,0,1,1.613,3.41,15.515,15.515,0,0,1,.627,4.847v9.782a8.73,8.73,0,0,0,.448,2.423,9.874,9.874,0,0,0,.806,2.065c.269.628.448.9.448.986L30.647,42A7.446,7.446,0,0,1,30.2,41.1Zm42.028-.539a12.268,12.268,0,0,1-4.391-2.782,13.672,13.672,0,0,1-2.777-4.307,14.765,14.765,0,0,1-.986-5.385A17.3,17.3,0,0,1,65.147,21.9a15.2,15.2,0,0,1,2.867-4.667,13.151,13.151,0,0,1,4.3-2.961,13.691,13.691,0,0,1,5.377-1.077,10.533,10.533,0,0,1,9.678,4.936,10.936,10.936,0,0,1,1.7,4.128,20.648,20.648,0,0,1,.448,3.5v.987a1.972,1.972,0,0,1-.09.718H66.85a13.187,13.187,0,0,0,.9,5.2,9.412,9.412,0,0,0,2.419,3.68,9.681,9.681,0,0,0,3.674,2.243,14.2,14.2,0,0,0,4.481.718,9.772,9.772,0,0,0,3.047-.359l.269,2.334a9.9,9.9,0,0,1-1.7.179,13.819,13.819,0,0,1-1.972.09A14.526,14.526,0,0,1,72.227,40.564Zm-29.751-.089a11.014,11.014,0,0,1-4.3-2.872,13.13,13.13,0,0,1-2.778-4.4,15.258,15.258,0,0,1-.985-5.475,14.819,14.819,0,0,1,1.165-6.1,15.355,15.355,0,0,1,3.136-4.576A14.316,14.316,0,0,1,43.1,14.18a13.881,13.881,0,0,1,5.018-.987,14.2,14.2,0,0,1,4.749.718,11.762,11.762,0,0,1,4.749,3.141l.09-.18a41,41,0,0,0-3.764-5.295A25.2,25.2,0,0,0,48.569,6.91L46.508,5.475a18.025,18.025,0,0,0-3.226-1.8,26.022,26.022,0,0,0-3.674-1.436L40.774,0c1.434.628,2.867,1.256,4.3,1.975A24.344,24.344,0,0,1,49.018,4.4l1.971,1.436A19.836,19.836,0,0,1,52.6,7.089a8.206,8.206,0,0,1,1.523,1.526,34.994,34.994,0,0,1,2.957,3.41,20.291,20.291,0,0,1,2.33,3.769,26.223,26.223,0,0,1,1.882,5.026,23.5,23.5,0,0,1,.627,5.744,17.162,17.162,0,0,1-1.255,6.82,12.747,12.747,0,0,1-3.227,4.667,12.225,12.225,0,0,1-4.48,2.693,15.885,15.885,0,0,1-5.018.807A13.832,13.832,0,0,1,42.476,40.475ZM88,40.923l11.022-13.91L88.716,13.82h3.136l5.2,6.641c.627.807,1.255,1.615,1.793,2.334s1.165,1.436,1.7,2.244h.089c.538-.718,1.166-1.526,1.7-2.244s1.165-1.436,1.792-2.244l5.2-6.641h3.047l-10.395,13.1L113,40.833h-3.227l-5.467-6.91c-.716-.9-1.344-1.795-1.971-2.6s-1.255-1.705-1.882-2.513h-.09a25.421,25.421,0,0,1-1.792,2.513c-.627.807-1.344,1.7-2.061,2.692l-5.288,6.91Zm-87.1,0V13.91H3.674V40.923ZM.627,9.244A2.521,2.521,0,0,1,0,7.538,2.629,2.629,0,0,1,.717,5.833,2.242,2.242,0,0,1,2.33,5.116a2.244,2.244,0,0,1,1.613.717A2.521,2.521,0,0,1,4.57,7.538a2.372,2.372,0,0,1-.627,1.706,2.294,2.294,0,0,1-1.7.717A2.244,2.244,0,0,1,.627,9.244Z" fill="#fff"/>
</svg>
